<mxfile host="app.diagrams.net" agent="Mozilla/5.0 (X11; Linux x86_64; rv:131.0) Gecko/20100101 Firefox/131.0" version="24.8.0">
  <diagram name="Сторінка-1" id="Ti-Yj-hnyYF3Pg_WrcuG">
    <mxGraphModel grid="1" page="1" gridSize="10" guides="1" tooltips="1" connect="1" arrows="1" fold="1" pageScale="1" pageWidth="1169" pageHeight="827" math="0" shadow="0">
      <root>
        <mxCell id="0" />
        <mxCell id="1" parent="0" />
        <mxCell id="0cfDIXG7WFFhRlQDzdi5-1" value="СТАРОСТА" style="shape=umlActor;verticalLabelPosition=bottom;verticalAlign=top;html=1;outlineConnect=0;" vertex="1" parent="1">
          <mxGeometry x="485" y="35" width="60" height="100" as="geometry" />
        </mxCell>
        <mxCell id="0cfDIXG7WFFhRlQDzdi5-5" value="" style="endArrow=none;dashed=1;html=1;rounded=0;" edge="1" parent="1" source="0cfDIXG7WFFhRlQDzdi5-1">
          <mxGeometry width="50" height="50" relative="1" as="geometry">
            <mxPoint x="775" y="200" as="sourcePoint" />
            <mxPoint x="685" y="85" as="targetPoint" />
          </mxGeometry>
        </mxCell>
        <mxCell id="0cfDIXG7WFFhRlQDzdi5-6" value="&lt;font style=&quot;font-size: 18px;&quot;&gt;Вхід&lt;/font&gt;" style="ellipse;whiteSpace=wrap;html=1;" vertex="1" parent="1">
          <mxGeometry x="695" y="45" width="120" height="80" as="geometry" />
        </mxCell>
        <mxCell id="0cfDIXG7WFFhRlQDzdi5-9" value="" style="endArrow=none;dashed=1;html=1;rounded=0;" edge="1" parent="1" target="0cfDIXG7WFFhRlQDzdi5-10">
          <mxGeometry width="50" height="50" relative="1" as="geometry">
            <mxPoint x="815" y="85" as="sourcePoint" />
            <mxPoint x="925" y="85" as="targetPoint" />
          </mxGeometry>
        </mxCell>
        <mxCell id="0cfDIXG7WFFhRlQDzdi5-10" value="&lt;div&gt;&lt;font style=&quot;font-size: 18px;&quot;&gt;Забув&lt;/font&gt;&lt;/div&gt;&lt;div&gt;&lt;font size=&quot;3&quot;&gt;пароль&lt;br&gt;&lt;/font&gt;&lt;/div&gt;" style="ellipse;whiteSpace=wrap;html=1;" vertex="1" parent="1">
          <mxGeometry x="925" y="45" width="120" height="80" as="geometry" />
        </mxCell>
        <mxCell id="0cfDIXG7WFFhRlQDzdi5-11" value="&amp;lt;&amp;lt;extend&amp;gt;&amp;gt;" style="text;html=1;align=center;verticalAlign=middle;whiteSpace=wrap;rounded=0;" vertex="1" parent="1">
          <mxGeometry x="845" y="50" width="60" height="30" as="geometry" />
        </mxCell>
        <mxCell id="0cfDIXG7WFFhRlQDzdi5-12" value="&lt;div&gt;Додати заняття&lt;/div&gt;" style="ellipse;whiteSpace=wrap;html=1;" vertex="1" parent="1">
          <mxGeometry x="925" y="140" width="120" height="80" as="geometry" />
        </mxCell>
        <mxCell id="0cfDIXG7WFFhRlQDzdi5-13" value="" style="endArrow=none;dashed=1;html=1;rounded=0;entryX=0;entryY=0.5;entryDx=0;entryDy=0;" edge="1" parent="1" source="0cfDIXG7WFFhRlQDzdi5-1" target="COKyQ7RPmFAuACQsXHgv-8">
          <mxGeometry width="50" height="50" relative="1" as="geometry">
            <mxPoint x="695" y="180" as="sourcePoint" />
            <mxPoint x="605" y="220" as="targetPoint" />
            <Array as="points">
              <mxPoint x="625" y="180" />
            </Array>
          </mxGeometry>
        </mxCell>
        <mxCell id="0cfDIXG7WFFhRlQDzdi5-25" value="" style="endArrow=none;dashed=1;html=1;rounded=0;entryX=0;entryY=0;entryDx=0;entryDy=0;" edge="1" parent="1" target="COKyQ7RPmFAuACQsXHgv-14">
          <mxGeometry width="50" height="50" relative="1" as="geometry">
            <mxPoint x="525" y="140" as="sourcePoint" />
            <mxPoint x="585" y="370" as="targetPoint" />
          </mxGeometry>
        </mxCell>
        <mxCell id="0cfDIXG7WFFhRlQDzdi5-31" value="" style="endArrow=none;dashed=1;html=1;rounded=0;exitX=0.5;exitY=0;exitDx=0;exitDy=0;" edge="1" parent="1" source="0cfDIXG7WFFhRlQDzdi5-32" target="0cfDIXG7WFFhRlQDzdi5-1">
          <mxGeometry width="50" height="50" relative="1" as="geometry">
            <mxPoint x="515" y="563.4782608695652" as="sourcePoint" />
            <mxPoint x="795" y="260" as="targetPoint" />
          </mxGeometry>
        </mxCell>
        <mxCell id="0cfDIXG7WFFhRlQDzdi5-32" value="&lt;div&gt;Переглянути&lt;/div&gt;&lt;div&gt;розклад&lt;br&gt;&lt;/div&gt;" style="ellipse;whiteSpace=wrap;html=1;" vertex="1" parent="1">
          <mxGeometry x="455" y="410" width="120" height="80" as="geometry" />
        </mxCell>
        <mxCell id="0cfDIXG7WFFhRlQDzdi5-33" value="" style="endArrow=none;dashed=1;html=1;rounded=0;" edge="1" parent="1">
          <mxGeometry width="50" height="50" relative="1" as="geometry">
            <mxPoint x="576" y="450" as="sourcePoint" />
            <mxPoint x="655" y="480" as="targetPoint" />
          </mxGeometry>
        </mxCell>
        <mxCell id="0cfDIXG7WFFhRlQDzdi5-34" value="&lt;div&gt;Вказати любий&lt;/div&gt;&lt;div&gt;день/тиждень&lt;/div&gt;" style="ellipse;whiteSpace=wrap;html=1;" vertex="1" parent="1">
          <mxGeometry x="655" y="440" width="120" height="80" as="geometry" />
        </mxCell>
        <mxCell id="0cfDIXG7WFFhRlQDzdi5-35" value="&amp;lt;&amp;lt;extend&amp;gt;&amp;gt;" style="text;html=1;align=center;verticalAlign=middle;whiteSpace=wrap;rounded=0;" vertex="1" parent="1">
          <mxGeometry x="405" y="150" width="60" height="30" as="geometry" />
        </mxCell>
        <mxCell id="COKyQ7RPmFAuACQsXHgv-4" value="&lt;div&gt;Довільний&lt;/div&gt;&lt;div&gt;студент&lt;br&gt;&lt;/div&gt;" style="shape=umlActor;verticalLabelPosition=bottom;verticalAlign=top;html=1;outlineConnect=0;" vertex="1" parent="1">
          <mxGeometry x="500" y="560" width="30" height="60" as="geometry" />
        </mxCell>
        <mxCell id="COKyQ7RPmFAuACQsXHgv-7" value="" style="endArrow=none;dashed=1;html=1;rounded=0;exitX=0.5;exitY=0;exitDx=0;exitDy=0;exitPerimeter=0;entryX=0.5;entryY=1;entryDx=0;entryDy=0;" edge="1" parent="1" source="COKyQ7RPmFAuACQsXHgv-4" target="0cfDIXG7WFFhRlQDzdi5-32">
          <mxGeometry width="50" height="50" relative="1" as="geometry">
            <mxPoint x="635" y="570" as="sourcePoint" />
            <mxPoint x="675" y="530" as="targetPoint" />
          </mxGeometry>
        </mxCell>
        <mxCell id="COKyQ7RPmFAuACQsXHgv-8" value="&lt;div&gt;Редагування заняття&lt;/div&gt;&lt;div&gt;у списку занять&lt;br&gt;&lt;/div&gt;" style="ellipse;whiteSpace=wrap;html=1;" vertex="1" parent="1">
          <mxGeometry x="675" y="140" width="120" height="80" as="geometry" />
        </mxCell>
        <mxCell id="COKyQ7RPmFAuACQsXHgv-9" value="" style="endArrow=none;dashed=1;html=1;rounded=0;entryX=0;entryY=0.5;entryDx=0;entryDy=0;exitX=1;exitY=0.5;exitDx=0;exitDy=0;" edge="1" parent="1" source="COKyQ7RPmFAuACQsXHgv-8" target="0cfDIXG7WFFhRlQDzdi5-12">
          <mxGeometry width="50" height="50" relative="1" as="geometry">
            <mxPoint x="655" y="290" as="sourcePoint" />
            <mxPoint x="705" y="240" as="targetPoint" />
          </mxGeometry>
        </mxCell>
        <mxCell id="COKyQ7RPmFAuACQsXHgv-10" value="&amp;lt;&amp;lt;extend&amp;gt;&amp;gt;" style="text;html=1;align=center;verticalAlign=middle;whiteSpace=wrap;rounded=0;" vertex="1" parent="1">
          <mxGeometry x="815" y="150" width="60" height="30" as="geometry" />
        </mxCell>
        <mxCell id="mjI8aYE7OpPZNHGNXnoK-5" value="&lt;div&gt;Зміна назви&lt;/div&gt;" style="ellipse;whiteSpace=wrap;html=1;" vertex="1" parent="1">
          <mxGeometry x="905" y="230" width="120" height="80" as="geometry" />
        </mxCell>
        <mxCell id="COKyQ7RPmFAuACQsXHgv-11" value="" style="endArrow=none;dashed=1;html=1;rounded=0;exitX=0.961;exitY=0.686;exitDx=0;exitDy=0;exitPerimeter=0;entryX=0;entryY=0;entryDx=0;entryDy=0;" edge="1" parent="1" source="COKyQ7RPmFAuACQsXHgv-8" target="mjI8aYE7OpPZNHGNXnoK-5">
          <mxGeometry width="50" height="50" relative="1" as="geometry">
            <mxPoint x="795" y="230" as="sourcePoint" />
            <mxPoint x="975" y="210" as="targetPoint" />
          </mxGeometry>
        </mxCell>
        <mxCell id="mjI8aYE7OpPZNHGNXnoK-4" value="Видалити заняття&lt;div&gt;&lt;br&gt;&lt;/div&gt;" style="ellipse;whiteSpace=wrap;html=1;" vertex="1" parent="1">
          <mxGeometry x="755" y="240" width="120" height="80" as="geometry" />
        </mxCell>
        <mxCell id="mjI8aYE7OpPZNHGNXnoK-7" value="" style="endArrow=none;dashed=1;html=1;rounded=0;entryX=0;entryY=0;entryDx=0;entryDy=0;exitX=0.5;exitY=1;exitDx=0;exitDy=0;" edge="1" parent="1" source="COKyQ7RPmFAuACQsXHgv-8" target="mjI8aYE7OpPZNHGNXnoK-4">
          <mxGeometry width="50" height="50" relative="1" as="geometry">
            <mxPoint x="805" y="190" as="sourcePoint" />
            <mxPoint x="935" y="190" as="targetPoint" />
          </mxGeometry>
        </mxCell>
        <mxCell id="COKyQ7RPmFAuACQsXHgv-12" value="&amp;lt;&amp;lt;extend&amp;gt;&amp;gt;" style="text;html=1;align=center;verticalAlign=middle;whiteSpace=wrap;rounded=0;" vertex="1" parent="1">
          <mxGeometry x="845" y="190" width="60" height="30" as="geometry" />
        </mxCell>
        <mxCell id="COKyQ7RPmFAuACQsXHgv-13" value="&amp;lt;&amp;lt;extend&amp;gt;&amp;gt;" style="text;html=1;align=center;verticalAlign=middle;whiteSpace=wrap;rounded=0;" vertex="1" parent="1">
          <mxGeometry x="695" y="230" width="60" height="30" as="geometry" />
        </mxCell>
        <mxCell id="COKyQ7RPmFAuACQsXHgv-14" value="&lt;div&gt;Редагування&lt;/div&gt;&lt;div&gt;графіку&lt;/div&gt;" style="ellipse;whiteSpace=wrap;html=1;" vertex="1" parent="1">
          <mxGeometry x="575" y="260" width="120" height="80" as="geometry" />
        </mxCell>
        <mxCell id="COKyQ7RPmFAuACQsXHgv-15" value="Додати графік факультету" style="ellipse;whiteSpace=wrap;html=1;" vertex="1" parent="1">
          <mxGeometry x="885" y="330" width="120" height="80" as="geometry" />
        </mxCell>
        <mxCell id="COKyQ7RPmFAuACQsXHgv-16" value="" style="endArrow=none;dashed=1;html=1;rounded=0;exitX=1;exitY=1;exitDx=0;exitDy=0;entryX=0;entryY=0;entryDx=0;entryDy=0;" edge="1" parent="1" source="COKyQ7RPmFAuACQsXHgv-14" target="mjI8aYE7OpPZNHGNXnoK-8">
          <mxGeometry width="50" height="50" relative="1" as="geometry">
            <mxPoint x="985" y="460" as="sourcePoint" />
            <mxPoint x="1035" y="410" as="targetPoint" />
          </mxGeometry>
        </mxCell>
        <mxCell id="mjI8aYE7OpPZNHGNXnoK-8" value="&lt;div&gt;Обрати заготовлений&lt;/div&gt;&lt;div&gt;графік факультету&lt;br&gt;&lt;/div&gt;" style="ellipse;whiteSpace=wrap;html=1;" vertex="1" parent="1">
          <mxGeometry x="695" y="340" width="120" height="80" as="geometry" />
        </mxCell>
        <mxCell id="COKyQ7RPmFAuACQsXHgv-17" value="" style="endArrow=none;dashed=1;html=1;rounded=0;entryX=0;entryY=0.5;entryDx=0;entryDy=0;" edge="1" parent="1" target="COKyQ7RPmFAuACQsXHgv-15">
          <mxGeometry width="50" height="50" relative="1" as="geometry">
            <mxPoint x="815" y="380" as="sourcePoint" />
            <mxPoint x="865" y="330" as="targetPoint" />
          </mxGeometry>
        </mxCell>
        <mxCell id="COKyQ7RPmFAuACQsXHgv-18" value="&amp;lt;&amp;lt;extend&amp;gt;&amp;gt;" style="text;html=1;align=center;verticalAlign=middle;whiteSpace=wrap;rounded=0;" vertex="1" parent="1">
          <mxGeometry x="815" y="340" width="60" height="30" as="geometry" />
        </mxCell>
        <mxCell id="mjI8aYE7OpPZNHGNXnoK-9" value="&lt;div&gt;Редагування&lt;/div&gt;&lt;div&gt;розкладу&lt;/div&gt;" style="ellipse;whiteSpace=wrap;html=1;" vertex="1" parent="1">
          <mxGeometry x="315" y="20" width="120" height="80" as="geometry" />
        </mxCell>
        <mxCell id="COKyQ7RPmFAuACQsXHgv-19" value="" style="endArrow=none;dashed=1;html=1;rounded=0;exitX=1;exitY=0.563;exitDx=0;exitDy=0;exitPerimeter=0;" edge="1" parent="1" source="mjI8aYE7OpPZNHGNXnoK-9" target="0cfDIXG7WFFhRlQDzdi5-1">
          <mxGeometry width="50" height="50" relative="1" as="geometry">
            <mxPoint x="255" y="150" as="sourcePoint" />
            <mxPoint x="305" y="100" as="targetPoint" />
          </mxGeometry>
        </mxCell>
        <mxCell id="COKyQ7RPmFAuACQsXHgv-21" value="&lt;div&gt;Призначення&lt;/div&gt;&lt;div&gt;предмета&lt;br&gt;&lt;/div&gt;" style="ellipse;whiteSpace=wrap;html=1;" vertex="1" parent="1">
          <mxGeometry x="355" y="210" width="120" height="80" as="geometry" />
        </mxCell>
        <mxCell id="COKyQ7RPmFAuACQsXHgv-22" value="" style="endArrow=none;dashed=1;html=1;rounded=0;exitX=0.5;exitY=0;exitDx=0;exitDy=0;entryX=0.5;entryY=1;entryDx=0;entryDy=0;" edge="1" parent="1" source="COKyQ7RPmFAuACQsXHgv-21" target="mjI8aYE7OpPZNHGNXnoK-9">
          <mxGeometry width="50" height="50" relative="1" as="geometry">
            <mxPoint x="105" y="130" as="sourcePoint" />
            <mxPoint x="155" y="80" as="targetPoint" />
          </mxGeometry>
        </mxCell>
        <mxCell id="COKyQ7RPmFAuACQsXHgv-23" value="&lt;div&gt;Призначити постійну&lt;/div&gt;&lt;div&gt;чи періодичну пару&lt;br&gt;&lt;/div&gt;" style="ellipse;whiteSpace=wrap;html=1;" vertex="1" parent="1">
          <mxGeometry x="225.0000000000001" y="290" width="120" height="80" as="geometry" />
        </mxCell>
        <mxCell id="COKyQ7RPmFAuACQsXHgv-24" value="" style="endArrow=none;dashed=1;html=1;rounded=0;exitX=0.747;exitY=0.104;exitDx=0;exitDy=0;entryX=0.001;entryY=0.571;entryDx=0;entryDy=0;entryPerimeter=0;exitPerimeter=0;" edge="1" parent="1" source="COKyQ7RPmFAuACQsXHgv-23" target="COKyQ7RPmFAuACQsXHgv-21">
          <mxGeometry width="50" height="50" relative="1" as="geometry">
            <mxPoint x="-75" y="100" as="sourcePoint" />
            <mxPoint x="-25" y="50" as="targetPoint" />
          </mxGeometry>
        </mxCell>
        <mxCell id="COKyQ7RPmFAuACQsXHgv-25" value="Вказати додаткову інформацію про пару" style="ellipse;whiteSpace=wrap;html=1;" vertex="1" parent="1">
          <mxGeometry x="205" y="410" width="120" height="80" as="geometry" />
        </mxCell>
        <mxCell id="COKyQ7RPmFAuACQsXHgv-27" value="" style="endArrow=none;dashed=1;html=1;rounded=0;entryX=0.5;entryY=1;entryDx=0;entryDy=0;exitX=0.5;exitY=0;exitDx=0;exitDy=0;" edge="1" parent="1" source="COKyQ7RPmFAuACQsXHgv-25" target="COKyQ7RPmFAuACQsXHgv-23">
          <mxGeometry width="50" height="50" relative="1" as="geometry">
            <mxPoint x="235" y="386" as="sourcePoint" />
            <mxPoint x="285" y="336" as="targetPoint" />
          </mxGeometry>
        </mxCell>
        <mxCell id="COKyQ7RPmFAuACQsXHgv-28" value="&amp;lt;&amp;lt;include&amp;gt;&amp;gt;" style="text;html=1;align=center;verticalAlign=middle;whiteSpace=wrap;rounded=0;" vertex="1" parent="1">
          <mxGeometry x="205" y="370" width="60" height="30" as="geometry" />
        </mxCell>
        <mxCell id="COKyQ7RPmFAuACQsXHgv-30" value="" style="endArrow=none;dashed=1;html=1;rounded=0;exitX=0.5;exitY=1;exitDx=0;exitDy=0;entryX=0.5;entryY=0;entryDx=0;entryDy=0;" edge="1" parent="1" source="COKyQ7RPmFAuACQsXHgv-21" target="mjI8aYE7OpPZNHGNXnoK-11">
          <mxGeometry width="50" height="50" relative="1" as="geometry">
            <mxPoint x="75" y="120" as="sourcePoint" />
            <mxPoint x="105" y="130" as="targetPoint" />
          </mxGeometry>
        </mxCell>
        <mxCell id="mjI8aYE7OpPZNHGNXnoK-11" value="&lt;div&gt;Призначити одноразову пару&lt;/div&gt;" style="ellipse;whiteSpace=wrap;html=1;" vertex="1" parent="1">
          <mxGeometry x="355.0000000000001" y="340" width="120" height="80" as="geometry" />
        </mxCell>
        <mxCell id="mjI8aYE7OpPZNHGNXnoK-12" value="Видалити призначення" style="ellipse;whiteSpace=wrap;html=1;" vertex="1" parent="1">
          <mxGeometry x="125" y="25" width="120" height="80" as="geometry" />
        </mxCell>
        <mxCell id="mjI8aYE7OpPZNHGNXnoK-13" value="Змінити довільну інформацію" style="ellipse;whiteSpace=wrap;html=1;" vertex="1" parent="1">
          <mxGeometry x="255" y="140" width="120" height="80" as="geometry" />
        </mxCell>
        <mxCell id="mjI8aYE7OpPZNHGNXnoK-14" value="" style="endArrow=none;dashed=1;html=1;rounded=0;exitX=1.003;exitY=0.439;exitDx=0;exitDy=0;entryX=0;entryY=0.5;entryDx=0;entryDy=0;exitPerimeter=0;" edge="1" parent="1" source="mjI8aYE7OpPZNHGNXnoK-12" target="mjI8aYE7OpPZNHGNXnoK-9">
          <mxGeometry width="50" height="50" relative="1" as="geometry">
            <mxPoint x="104" y="50" as="sourcePoint" />
            <mxPoint x="335" y="95" as="targetPoint" />
          </mxGeometry>
        </mxCell>
        <mxCell id="mjI8aYE7OpPZNHGNXnoK-15" value="" style="endArrow=none;dashed=1;html=1;rounded=0;exitX=0.5;exitY=0;exitDx=0;exitDy=0;entryX=0.189;entryY=0.963;entryDx=0;entryDy=0;entryPerimeter=0;" edge="1" parent="1" source="mjI8aYE7OpPZNHGNXnoK-13" target="mjI8aYE7OpPZNHGNXnoK-9">
          <mxGeometry width="50" height="50" relative="1" as="geometry">
            <mxPoint x="114" y="60" as="sourcePoint" />
            <mxPoint x="345" y="105" as="targetPoint" />
          </mxGeometry>
        </mxCell>
        <mxCell id="mjI8aYE7OpPZNHGNXnoK-17" value="Вказати додаткову інформацію про пару включаючи дату та час" style="ellipse;whiteSpace=wrap;html=1;" vertex="1" parent="1">
          <mxGeometry x="335" y="465" width="120" height="80" as="geometry" />
        </mxCell>
        <mxCell id="mjI8aYE7OpPZNHGNXnoK-20" value="" style="endArrow=none;dashed=1;html=1;rounded=0;entryX=0.433;entryY=0.973;entryDx=0;entryDy=0;entryPerimeter=0;exitX=0.5;exitY=0;exitDx=0;exitDy=0;" edge="1" parent="1" source="mjI8aYE7OpPZNHGNXnoK-17" target="mjI8aYE7OpPZNHGNXnoK-11">
          <mxGeometry width="50" height="50" relative="1" as="geometry">
            <mxPoint x="295" y="400" as="sourcePoint" />
            <mxPoint x="345" y="350" as="targetPoint" />
          </mxGeometry>
        </mxCell>
        <mxCell id="mjI8aYE7OpPZNHGNXnoK-21" value="&amp;lt;&amp;lt;include&amp;gt;&amp;gt;" style="text;html=1;align=center;verticalAlign=middle;whiteSpace=wrap;rounded=0;" vertex="1" parent="1">
          <mxGeometry x="335" y="420" width="60" height="30" as="geometry" />
        </mxCell>
        <mxCell id="mjI8aYE7OpPZNHGNXnoK-24" value="&amp;lt;&amp;lt;extend&amp;gt;&amp;gt;" style="text;html=1;align=center;verticalAlign=middle;whiteSpace=wrap;rounded=0;" vertex="1" parent="1">
          <mxGeometry x="605" y="445" width="60" height="30" as="geometry" />
        </mxCell>
        <mxCell id="mjI8aYE7OpPZNHGNXnoK-25" value="&amp;lt;&amp;lt;extend&amp;gt;&amp;gt;" style="text;html=1;align=center;verticalAlign=middle;whiteSpace=wrap;rounded=0;" vertex="1" parent="1">
          <mxGeometry x="255" y="110" width="60" height="30" as="geometry" />
        </mxCell>
        <mxCell id="mjI8aYE7OpPZNHGNXnoK-26" value="&amp;lt;&amp;lt;extend&amp;gt;&amp;gt;" style="text;html=1;align=center;verticalAlign=middle;whiteSpace=wrap;rounded=0;" vertex="1" parent="1">
          <mxGeometry x="255" y="25" width="60" height="30" as="geometry" />
        </mxCell>
      </root>
    </mxGraphModel>
  </diagram>
</mxfile>
